<svg width="42" height="42" viewBox="0 0 42 42" fill="none" xmlns="http://www.w3.org/2000/svg">
<path fill-rule="evenodd" clip-rule="evenodd" d="M21 0C9.40202 0 0 9.40202 0 21C0 32.598 9.40202 42 21 42C32.598 42 42 32.598 42 21C42 9.40202 32.598 0 21 0ZM21 6C12.7157 6 6 12.7157 6 21C6 29.2843 12.7157 36 21 36C29.2843 36 36 29.2843 36 21C36 12.7157 29.2843 6 21 6Z" fill="#0185FF"/>
<rect x="9" y="17" width="24" height="8" rx="4" fill="#0185FF"/>
<rect x="17" y="33" width="24" height="8" rx="4" transform="rotate(-90 17 33)" fill="#0185FF"/>
</svg>
