<svg width="50" height="50" viewBox="0 0 50 50" fill="none" xmlns="http://www.w3.org/2000/svg">
<g filter="url(#filter0_d)">
<rect x="5.5" y="1.5" width="39" height="39" rx="10.5" stroke="#AEAEAE" stroke-width="3"/>
<path d="M12 10C12 8.89543 12.8954 8 14 8H37C38.1046 8 39 8.89543 39 10V10C39 11.1046 38.1046 12 37 12H14C12.8954 12 12 11.1046 12 10V10Z" fill="#AEAEAE"/>
<rect x="24" y="29" width="15" height="4" rx="2" fill="#AEAEAE"/>
<rect x="12" y="22" width="27" height="4" rx="2" fill="#AEAEAE"/>
<path d="M21 17C21 15.8954 21.8954 15 23 15H37C38.1046 15 39 15.8954 39 17V17C39 18.1046 38.1046 19 37 19H23C21.8954 19 21 18.1046 21 17V17Z" fill="#AEAEAE"/>
</g>
<defs>
<filter id="filter0_d" x="0" y="0" width="50" height="50" filterUnits="userSpaceOnUse" color-interpolation-filters="sRGB">
<feFlood flood-opacity="0" result="BackgroundImageFix"/>
<feColorMatrix in="SourceAlpha" type="matrix" values="0 0 0 0 0 0 0 0 0 0 0 0 0 0 0 0 0 0 127 0" result="hardAlpha"/>
<feOffset dy="4"/>
<feGaussianBlur stdDeviation="2"/>
<feComposite in2="hardAlpha" operator="out"/>
<feColorMatrix type="matrix" values="0 0 0 0 0 0 0 0 0 0 0 0 0 0 0 0 0 0 0.25 0"/>
<feBlend mode="normal" in2="BackgroundImageFix" result="effect1_dropShadow"/>
<feBlend mode="normal" in="SourceGraphic" in2="effect1_dropShadow" result="shape"/>
</filter>
</defs>
</svg>
