<svg width="32" height="27" viewBox="0 0 32 27" fill="none" xmlns="http://www.w3.org/2000/svg">
<path d="M8.24219 7.91406C9.71094 7.91406 10.8125 8.24219 11.5469 8.89844C12.2812 9.55469 12.6484 10.5273 12.6484 11.8164V16.4805C12.6484 17.0977 12.9062 17.4062 13.4219 17.4062H13.832C14.0977 17.4062 14.2852 17.4688 14.3945 17.5938C14.5117 17.7109 14.5703 17.9141 14.5703 18.2031C14.5703 18.4922 14.5117 18.6992 14.3945 18.8242C14.2852 18.9414 14.0977 19 13.832 19H13.082C12.5742 19 12.1367 18.875 11.7695 18.625C11.4102 18.3672 11.1758 17.9922 11.0664 17.5C10.4258 18.0625 9.73047 18.4961 8.98047 18.8008C8.23828 19.1055 7.44922 19.2578 6.61328 19.2578C5.82422 19.2578 5.125 19.125 4.51562 18.8594C3.91406 18.5859 3.44141 18.1914 3.09766 17.6758C2.75391 17.1602 2.58203 16.5469 2.58203 15.8359C2.58203 14.6016 3.02344 13.6914 3.90625 13.1055C4.78906 12.5117 5.92969 12.2148 7.32812 12.2148C8.57031 12.2148 9.75781 12.4141 10.8906 12.8125V11.8164C10.8906 11.0586 10.6758 10.5039 10.2461 10.1523C9.82422 9.79297 9.14062 9.61328 8.19531 9.61328C7.60938 9.61328 7 9.69531 6.36719 9.85938C5.73438 10.0234 5.13281 10.25 4.5625 10.5391C4.42969 10.6094 4.30859 10.6445 4.19922 10.6445C3.94141 10.6445 3.72656 10.457 3.55469 10.082C3.46875 9.89453 3.42578 9.73828 3.42578 9.61328C3.42578 9.33984 3.57031 9.12891 3.85938 8.98047C4.51562 8.63672 5.21875 8.375 5.96875 8.19531C6.72656 8.00781 7.48438 7.91406 8.24219 7.91406ZM7.33984 13.8672C6.44141 13.8672 5.73047 14.0234 5.20703 14.3359C4.69141 14.6406 4.43359 15.1289 4.43359 15.8008C4.43359 16.3711 4.62891 16.8164 5.01953 17.1367C5.41797 17.4492 5.97266 17.6055 6.68359 17.6055C8.23828 17.6055 9.64062 16.9609 10.8906 15.6719V14.3945C10.3594 14.2227 9.78906 14.0938 9.17969 14.0078C8.57031 13.9141 7.95703 13.8672 7.33984 13.8672ZM18.7773 3.625C19.043 3.625 19.2305 3.6875 19.3398 3.8125C19.457 3.92969 19.5156 4.13281 19.5156 4.42188V9.84766C20.5234 8.55859 21.7617 7.91406 23.2305 7.91406C24.1992 7.91406 25.0664 8.14453 25.832 8.60547C26.5977 9.05859 27.1992 9.71484 27.6367 10.5742C28.0742 11.4258 28.293 12.4297 28.293 13.5859C28.293 14.7422 28.0742 15.75 27.6367 16.6094C27.1992 17.4609 26.5977 18.1172 25.832 18.5781C25.0664 19.0312 24.1992 19.2578 23.2305 19.2578C22.4648 19.2578 21.7578 19.0859 21.1094 18.7422C20.4609 18.3984 19.8906 17.9062 19.3984 17.2656V18.2031C19.3984 18.4922 19.3398 18.6992 19.2227 18.8242C19.1133 18.9414 18.9258 19 18.6602 19H16.7969C16.5312 19 16.3398 18.9414 16.2227 18.8242C16.1133 18.6992 16.0586 18.4922 16.0586 18.2031C16.0586 17.9141 16.1133 17.7109 16.2227 17.5938C16.3398 17.4688 16.5312 17.4062 16.7969 17.4062H17.7578V5.21875H16.5625C16.2969 5.21875 16.1055 5.16016 15.9883 5.04297C15.8789 4.91797 15.8242 4.71094 15.8242 4.42188C15.8242 4.13281 15.8789 3.92969 15.9883 3.8125C16.1055 3.6875 16.2969 3.625 16.5625 3.625H18.7773ZM23.1133 9.64844C22.418 9.64844 21.7969 9.80469 21.25 10.1172C20.7109 10.4297 20.2852 10.8828 19.9727 11.4766C19.668 12.0703 19.5156 12.7734 19.5156 13.5859C19.5156 14.3984 19.668 15.1016 19.9727 15.6953C20.2852 16.2891 20.7109 16.7422 21.25 17.0547C21.7969 17.3672 22.418 17.5234 23.1133 17.5234C23.8086 17.5234 24.4062 17.3594 24.9062 17.0312C25.4062 16.6953 25.7852 16.2305 26.043 15.6367C26.3086 15.043 26.4414 14.3594 26.4414 13.5859C26.4414 12.8125 26.3086 12.1289 26.043 11.5352C25.7852 10.9414 25.4062 10.4805 24.9062 10.1523C24.4062 9.81641 23.8086 9.64844 23.1133 9.64844Z" fill="#D4D4D4"/>
<rect y="12" width="32" height="2" rx="1" fill="#D4D4D4"/>
</svg>
